<svg id="Capa_1" data-name="Capa 1" xmlns="http://www.w3.org/2000/svg" viewBox="0 0 474.43 455.14"><defs><style>.cls-1{fill:#191b21;}.cls-2{fill:#1363dc;stroke:#fff;stroke-miterlimit:10;stroke-width:3px;}.cls-3{fill:#fff;}</style></defs><path class="cls-1" d="M405.29,303c-8.85,21-21.23,43.73-36,58.5-13.57,14.2-22.38,17.63-52.49,17.63-3.53,0-46-.57-46.58-.57-33.57-.57-38.33-8.51-38.33-43.16V104.16c0-48.85,6.49-51.12,53.66-55.67V32.58h-158V48.49c33.51,3.23,46.19,5.61,50.72,24h14.24a3.34,3.34,0,0,1,0,6.68h-13c.24,1.84.44,3.79.59,5.89h12.44a3.34,3.34,0,0,1,.37,6.67,2.29,2.29,0,0,1-.37,0H180.44c.06,1.87.1,3.85.13,5.89h12a3.34,3.34,0,0,1,.37,6.67H180.62v5.89h11.9a3.34,3.34,0,0,1,0,6.68h-11.9V122h11.9a3.34,3.34,0,0,1,.37,6.67H180.62v201c0,48.28-4.72,51.12-58.38,56.24v15.88h274.2c5.9-17.64,23.59-76.68,27.13-94.28Z"/><path class="cls-2" d="M43.57,256.47c32.54,35.78,88.18,55.07,119.81,4.48,24.83-36.21,40.45-84,74.08-111.67,33.52-25.28,77.38-24,110.79-2.21,29.86,20.1,45.18,62.69,38.05,104.51-.32,1.94-.41,4.19-2.8,5.48-2.38-27.32-7.64-56.59-25.59-74.93-38.85-37.19-92.55-10.67-115.67,36.11C217.39,265.47,184,323.37,130.3,321.09,91.78,323,53.75,300.74,43.57,256.47Z"/><circle class="cls-1" cx="206.83" cy="373.83" r="40.97"/><circle class="cls-3" cx="206.83" cy="373.83" r="23.11"/></svg>